<?xml version="1.0" encoding="UTF-8"?>
<svg width="1024px" height="1024px" viewBox="0 0 1024 1024" version="1.1" xmlns="http://www.w3.org/2000/svg" xmlns:xlink="http://www.w3.org/1999/xlink">
    <title>github - flat</title>
    <g id="github---flat" stroke="none" stroke-width="1" fill="none" fill-rule="evenodd">
        <path d="M515.738029,49.0015858 C516.948651,49.0046874 518.158205,49.0123371 519.366675,49.0245187 L519.367928,49.0379071 C521.851627,49.0786039 524.322374,49.1232484 526.780167,49.1718404 L526.782298,49.1563642 C782.612536,55.677236 988,265.327884 988,523 C988,734.818659 849.207015,914.186249 657.694073,974.938853 C641.900163,973.952021 635.720341,961.924686 635.720341,951.544382 C635.720341,935.522885 636.314061,884.491447 636.314061,820.998844 C636.314061,776.494683 621.471053,748.01202 604.253163,733.1773 C709.935384,721.309524 820.961087,680.959084 820.961087,498.788719 C820.961087,446.570504 802.555757,404.439898 772.276019,371.210125 C777.025782,359.342348 793.649952,310.684466 767.526257,245.411697 C767.526257,245.411697 727.746994,232.357143 636.907782,294.069579 C598.90968,283.388581 558.536697,278.048081 518.163713,278.048081 C477.79073,278.048081 437.417747,283.388581 399.419645,294.069579 C308.580433,232.950532 268.80117,245.411697 268.80117,245.411697 C242.677475,310.684466 259.301645,359.342348 264.051408,371.210125 C233.77167,404.439898 215.36634,447.163893 215.36634,498.788719 C215.36634,680.365696 325.798323,721.309524 431.480544,733.1773 C417.824976,745.045076 405.356849,765.813684 401.200806,796.669903 C373.889671,809.131068 305.611831,829.306287 262.863967,757.506241 C253.958162,743.26491 227.240746,708.25497 189.836365,708.848359 C150.057102,709.441747 173.805916,731.397133 190.430085,740.297966 C210.616577,751.572353 233.77167,793.702959 239.115153,807.350901 C248.614679,834.053398 279.488136,885.084836 398.825925,863.12945 C398.825925,902.8865 399.419645,940.269995 399.419645,951.544382 C399.419645,963.382675 391.381904,976.827617 370.215774,974.580669 L370.211322,974.590142 C314.245067,956.685395 262.8046,928.643695 218.044795,892.622189 C110.615536,805.692978 42,672.93727 42,523.711049 C42,261.433195 254.551882,49 516.976273,49 Z" id="形状结合" fill="#333333"></path>
    </g>
</svg>