<?xml version="1.0" encoding="UTF-8"?>
<svg width="1024px" height="1024px" viewBox="0 0 1024 1024" version="1.1" xmlns="http://www.w3.org/2000/svg" xmlns:xlink="http://www.w3.org/1999/xlink">
    <title>npm - flat</title>
    <g id="npm---flat" stroke="none" stroke-width="1" fill="none" fill-rule="evenodd">
        <g id="编组" transform="translate(69.000000, 69.000000)" fill="#333333">
            <path d="M862.741752,5.76193748 L863.22564,6.01537794 C863.306248,6.05805246 863.386846,6.10094398 863.467451,6.14405219 C870.963747,10.1531153 876.846885,16.0362525 880.855948,23.5325488 L880.984622,23.7743601 L880.984622,23.7743601 L881.238063,24.2582481 C885.000531,31.5221599 887,39.125878 887,58.9693596 L887,828.03064 C887,847.874122 885.000531,855.47784 881.238063,862.741752 L880.984622,863.22564 C880.941948,863.306248 880.899056,863.386846 880.855948,863.467451 C876.846885,870.963747 870.963747,876.846885 863.467451,880.855948 L863.22564,880.984622 L863.22564,880.984622 L862.741752,881.238063 C855.47784,885.000531 847.874122,887 828.03064,887 L58.9693596,887 C39.125878,887 31.5221599,885.000531 24.2582481,881.238063 L23.7743601,880.984622 C23.6937525,880.941948 23.6131542,880.899056 23.5325488,880.855948 C16.0362525,876.846885 10.1531153,870.963747 6.14405219,863.467451 L6.01537794,863.22564 L6.01537794,863.22564 L5.76193748,862.741752 C2.04127466,855.55855 0.0446503088,848.043052 0.000740219867,828.687573 L1.58828847e-15,58.9693596 C-8.41837154e-16,39.125878 1.99946946,31.5221599 5.76193748,24.2582481 L6.01537794,23.7743601 C6.05805246,23.6937525 6.10094398,23.6131542 6.14405219,23.5325488 C10.1531153,16.0362525 16.0362525,10.1531153 23.5325488,6.14405219 L23.7743601,6.01537794 L23.7743601,6.01537794 L24.2582481,5.76193748 C31.4414498,2.04127466 38.9569484,0.0446503088 58.3124271,0.000740219867 L828.03064,-8.90183021e-14 C847.874122,-3.97898341e-14 855.47784,1.99946946 862.741752,5.76193748 Z M189.548602,197.111111 L188.898148,708.042828 L444.52662,708.042828 L444.851847,325.250574 L572.340856,325.250574 L572.015629,708.368056 L699.829866,708.368056 L700.155093,197.761565 L189.548602,197.111111 Z" id="形状结合"></path>
        </g>
    </g>
</svg>