<?xml version="1.0" encoding="UTF-8"?>
<svg width="1024px" height="1024px" viewBox="0 0 1024 1024" version="1.1" xmlns="http://www.w3.org/2000/svg" xmlns:xlink="http://www.w3.org/1999/xlink">
    <title>React - flat</title>
    <g id="React---flat" stroke="none" stroke-width="1" fill="none" fill-rule="evenodd">
        <path d="M760.75,78.7592355 C820.918325,113.497434 834.246209,213.610596 805.694808,339.5455 C929.560033,377.845615 1010,439.706084 1010,509.5 C1010,579.294477 929.558741,641.155378 805.689838,679.453084 C835.574417,807.473746 822.645289,909.533264 761.772564,944.678148 C701.01683,979.755487 606.4136,940.143058 510.676099,850.625922 C415.852219,938.381826 322.440689,976.937674 262.25,942.186563 C201.792404,907.281354 188.62672,806.371065 217.719895,679.582142 C93.6192069,641.292139 13,579.371632 13,509.5 C13,439.624258 93.6286915,377.700577 217.743019,339.413236 C189.964268,214.710896 203.523275,115.747088 263.272564,81.2508202 C323.244886,46.6257838 416.197442,84.7767671 510.666217,171.865168 C606.057916,83.0158409 700.208542,43.8056082 760.75,78.7592355 Z M745.909088,695.32311 L740.589451,696.504373 C705.849117,704.108395 668.720604,710.036937 629.803948,714.036621 C605.322547,747.989313 579.952182,779.074043 554.326639,806.812977 C623.947448,874.334325 688.013292,905.790966 726.494103,883.57406 C765.080185,861.296375 769.791545,789.756196 745.909088,695.32311 Z M277.467236,695.407451 L277.136177,696.747871 C254.368239,789.239794 259.477605,859.113803 297.528462,881.082475 C335.562498,903.041437 398.590917,872.565948 467.271931,806.662864 C441.824707,778.89669 416.649129,747.834701 392.367467,713.955357 C351.901846,709.761076 313.376337,703.484693 277.467236,695.407451 Z M476.978417,719.503136 L480.386508,723.862207 C490.554487,736.813105 500.751652,749.15128 510.91931,760.825125 C522.289031,747.878297 533.701731,734.088216 545.074435,719.534229 C533.979491,719.841698 522.783526,720 511.5,720 C499.895931,720 488.384468,719.832576 476.978417,719.503136 Z M511.5,364.557178 C483.771568,364.557178 456.659083,365.450383 430.399679,367.156476 C415.323479,389.658697 400.531186,413.383434 386.232418,438.149627 C372.173016,462.501226 359.224166,486.7626 347.437126,510.677798 C359.495157,535.264931 372.787055,560.228572 387.254982,585.287756 C400.590289,608.385186 414.354854,630.57678 428.381399,651.715455 C455.269254,653.50323 483.060659,654.442822 511.5,654.442822 C539.705836,654.442822 567.274332,653.518596 593.955895,651.754679 C608.5649,629.860614 622.898399,606.818301 636.767582,582.796172 C650.745148,558.586318 663.625053,534.46564 675.356927,510.685649 C663.902169,487.577358 651.363721,464.151333 637.790146,440.641212 C622.952701,414.942002 607.583845,390.364195 591.91399,367.110387 C565.870635,365.434958 538.987973,364.557178 511.5,364.557178 Z M709.611855,586.566449 L709.426998,586.899049 C704.266245,596.430437 698.93199,605.970603 693.425711,615.507758 C688.009871,624.888268 682.508299,634.126111 676.930005,643.214461 C694.471315,640.723288 711.415559,637.846974 727.674322,634.617499 C722.283776,618.974543 716.257549,602.926753 709.611855,586.566449 Z M313.258556,586.914305 L312.789186,588.09112 C306.429115,603.941132 300.655618,619.488742 295.485819,634.648437 C311.527234,637.832465 328.237354,640.672243 345.52611,643.138391 C340.48276,634.883144 335.504606,626.49982 330.596853,617.999342 C324.613676,607.636177 318.833612,597.269456 313.258556,586.914305 Z M233.65827,399.253495 L232.999231,399.447503 C141.514907,426.03019 83.5569231,465.472659 83.5569231,509.5 C83.5569231,553.685432 141.93188,593.253008 233.98602,619.838355 C245.033208,584.549294 258.971362,547.883535 275.705379,510.57977 C258.743924,472.527789 244.69452,435.158581 233.65827,399.253495 Z M789.572351,399.323183 L787.66422,405.386673 C776.814855,439.42698 763.298336,474.711152 747.196851,510.583915 C764.024557,547.846675 778.067112,584.487291 789.234687,619.775883 C881.160302,593.190498 939.443077,553.650531 939.443077,509.5 C939.443077,465.403972 881.304112,425.907133 789.572351,399.323183 Z M512.5,424 C560.272631,424 599,462.727369 599,510.5 C599,558.272631 560.272631,597 512.5,597 C464.727369,597 426,558.272631 426,510.5 C426,462.727369 464.727369,424 512.5,424 Z M675.050762,375.518942 L677.67305,379.76775 C683.347098,389.002787 688.941996,398.392471 694.448275,407.929626 C699.604155,416.859871 704.609208,425.792755 709.46222,434.718602 C716.375816,417.58338 722.606919,400.800276 728.134049,384.473004 C711.154887,381.091722 693.425292,378.09484 675.050762,375.518942 Z M347.383265,375.596769 L344.925242,375.947503 C327.688356,378.4168 311.028553,381.257721 295.033388,384.440612 C300.47094,400.654794 306.601484,417.323354 313.409898,434.343252 C318.62255,424.714282 324.010604,415.074625 329.574289,405.438041 C335.414681,395.322185 341.354773,385.372241 347.383265,375.596769 Z M555.636946,214.370389 L554.383088,215.580329 C579.155495,242.307825 603.696991,272.166145 627.435129,304.721574 C669.244394,308.927726 709.00782,315.356019 745.989691,323.695457 C768.613196,231.453743 763.453666,161.792315 725.471538,139.863323 C687.420682,117.894651 624.353332,148.406815 555.636946,214.370389 Z M298.551026,142.354908 C260.924334,164.078688 255.508808,232.645727 277.407737,323.604869 C314.024314,315.366892 353.361515,309.000581 394.703169,304.809539 C418.252185,272.326387 442.604444,242.488803 467.203211,215.728195 C398.946257,150.549952 336.383535,120.512299 298.551026,142.354908 Z M510.918156,261.441923 L510.053364,262.432489 C499.871981,274.11561 489.660708,286.46516 479.47848,299.42932 C490.064934,299.143882 500.742675,299 511.5,299 C521.931099,299 532.287369,299.135288 542.559505,299.401934 C532.016305,286.066204 521.44807,273.394412 510.918156,261.441923 Z" id="形状结合" fill="#333333"></path>
    </g>
</svg>