<?xml version="1.0" encoding="UTF-8"?>
<svg width="1024px" height="1024px" viewBox="0 0 1024 1024" version="1.1" xmlns="http://www.w3.org/2000/svg" xmlns:xlink="http://www.w3.org/1999/xlink">
    <title>TypeScript - flat</title>
    <g id="TypeScript---flat" stroke="none" stroke-width="1" fill="none" fill-rule="evenodd">
        <path d="M117.062459,89 L907.93689,89 C925.644597,89 940,103.186965 940,120.6875 L940,902.3125 C940,919.81375 925.644597,934 907.93689,934 L117.062459,934 C99.3548503,934 85,919.81375 85,902.3125 L85,120.6875 C85,103.186965 99.3548503,89 117.062459,89 Z M559,537.508867 L559,468 L253,468 L253,537.508867 L362.247154,537.508867 L362.247154,847 L449.216928,847 L449.216928,537.508867 L559,537.508867 Z M593.597876,839.907135 C607.442906,846.937006 623.818713,852.211035 642.722069,855.725971 C661.628653,859.240906 681.552067,861 702.498768,861 C722.912843,861 742.303632,859.065322 760.677591,855.199218 C779.048322,851.333114 795.156202,844.960058 809.001232,836.083301 C822.846262,827.206545 833.808659,815.608233 841.885195,801.281863 C849.961732,786.955493 854,769.247501 854,748.154636 C854,732.862553 851.691957,719.462877 847.075871,707.949106 C842.463013,696.435335 835.806811,686.196175 827.107264,677.231626 C818.410946,668.267077 807.981174,660.225971 795.821177,653.108308 C783.66118,645.990644 769.951727,639.26642 754.686363,632.938886 C743.501232,628.367193 733.471736,623.928815 724.597876,619.623751 C715.720788,615.318686 708.176876,610.922578 701.966143,606.441929 C695.752181,601.958029 690.961781,597.214004 687.588488,592.203351 C684.215194,587.19595 682.530161,581.525231 682.530161,575.197696 C682.530161,569.396915 684.037652,564.168407 687.055862,559.512175 C690.074072,554.85269 694.331847,550.853272 699.835641,547.513921 C705.339436,544.17457 712.082795,541.583077 720.072175,539.736191 C728.058326,537.892557 736.935415,536.969114 746.696984,536.969114 C753.798655,536.969114 761.297373,537.495867 769.196368,538.549372 C777.095362,539.606129 785.03955,541.231909 793.025701,543.426711 C801.015081,545.624765 808.781726,548.391842 816.325637,551.734445 C823.869548,555.073796 830.835641,558.9399 837.227145,563.332757 L837.227145,484.501954 C824.266596,479.579094 810.111675,475.930844 794.755926,473.560457 C779.403405,471.186819 761.784806,470 741.903356,470 C721.670051,470 702.498768,472.152532 684.392736,476.460848 C666.286703,480.765913 650.356365,487.490137 636.598492,496.63027 C622.840619,505.770403 611.968607,517.414237 603.982455,531.561771 C595.993076,545.712557 592,562.63042 592,582.31536 C592,607.453164 599.321177,628.897198 613.966759,646.647459 C628.61234,664.400973 650.843798,679.42968 680.664359,691.73358 C692.382115,696.480857 703.296092,701.137089 713.415973,705.708782 C723.532625,710.277222 732.274136,715.024499 739.640506,719.944108 C747.006875,724.866969 752.820561,730.225538 757.081563,736.02632 C761.342566,741.827102 763.473067,748.418012 763.473067,755.802304 C763.473067,761.251917 762.13989,766.30484 759.476763,770.961073 C756.813637,775.620557 752.775368,779.662245 747.361959,783.089389 C741.948549,786.516532 735.205189,789.199069 727.128653,791.130495 C719.052117,793.065173 709.597211,794.030886 698.770391,794.030886 C680.309275,794.030886 662.025701,790.824848 643.919669,784.409522 C625.816865,777.994195 609.040782,768.36958 593.597876,755.538927 L593.597876,839.907135 Z" id="形状" fill="#333333"></path>
    </g>
</svg>