<?xml version="1.0" encoding="UTF-8"?>
<svg width="2169px" height="471px" viewBox="0 0 2169 471" version="1.1" xmlns="http://www.w3.org/2000/svg" xmlns:xlink="http://www.w3.org/1999/xlink">
    <title>Icon - Logo - MergedLarge</title>
    <g id="Icon---Logo---MergedLarge" stroke="none" stroke-width="1" fill="none" fill-rule="evenodd">
        <g id="编组">
            <path d="M315.172446,68 L315.67,68.866 L316.241494,68.2932324 L416,168.673806 L390.323,194.431 L327.803,194.431 L302.27,168.74 L201.974,227.007 L201.974,269.979 L362.467,269.978 L295.258,337.321 L201.974,337.322 L201.974,389.786 L121,471 L121,180.736614 L121.21,180.736 L121.186939,180.694608 L315.172446,68 Z" id="形状结合" fill="#404040" transform="translate(268.500000, 269.500000) scale(-1, -1) translate(-268.500000, -269.500000) "></path>
            <path d="M194.172446,-1.19830545e-08 L194.67,0.865999988 L195.241494,0.293232425 L295,100.673806 L269.324,126.431 L206.803,126.431 L181.27,100.74 L80.974,159.007 L80.974,201.979 L241.467,201.978 L174.258,269.321 L80.974,269.322 L80.974,321.786 L0,403 L0,112.736614 L0.21,112.736 L0.18693897,112.694608 L194.172446,-1.19830545e-08 Z" id="形状结合" fill="#BCBCBC"></path>
        </g>
        <path d="M546.479146,365 C557.848654,365 568.337425,363.277055 577.94546,359.831164 C587.553494,356.385274 596.160692,351.496918 603.767053,345.166096 C611.373413,338.835274 617.578602,331.262329 622.38262,322.44726 L623.823825,322.44726 L623.823825,360.913014 L693.962477,360.913014 L693.962477,184.210959 C693.962477,166.90137 689.438694,151.755479 680.391128,138.773288 C671.343563,125.791096 658.65295,115.733904 642.319291,108.601712 C625.985633,101.469521 606.689496,97.9034247 584.430883,97.9034247 C561.852002,97.9034247 542.355698,101.389384 525.941972,108.361301 C509.528247,115.333219 496.717534,124.989726 487.509834,137.330822 C478.302134,149.671918 473.057749,163.776027 471.776677,179.643151 L471.536476,182.528082 L535.670107,182.528082 L536.150509,180.364384 C537.911982,172.030137 542.635932,165.138356 550.32236,159.689041 C558.008788,154.239726 568.417492,151.515068 581.548473,151.515068 C595.319989,151.515068 605.80876,154.840753 613.014786,161.492123 C620.220812,168.143493 623.823825,177.158904 623.823825,188.538356 L623.823569,204.289492 L560.170596,208.252055 C528.303948,210.335616 503.643325,218.068836 486.188729,231.451712 C468.734133,244.834589 460.006835,263.226027 460.006835,286.626027 L460.006835,287.106849 C460.006835,302.172603 463.649881,315.595548 470.935974,327.375685 C478.222067,339.155822 488.350537,348.371575 501.321384,355.022945 C514.29223,361.674315 529.344818,365 546.479146,365 Z M569.298228,313.792466 C557.128051,313.792466 547.43995,311.107877 540.233924,305.738699 C533.027898,300.369521 529.424885,292.956849 529.424885,283.500685 L529.424885,283.019863 C529.424885,273.884247 532.947831,266.551712 539.993723,261.02226 C547.039615,255.492808 557.288185,252.327397 570.739434,251.526027 L623.823825,248.116244 L623.823825,266.671918 C623.823825,275.64726 621.46185,283.701027 616.737899,290.833219 C612.013949,297.965411 605.528526,303.575 597.281629,307.661986 C589.034733,311.748973 579.706933,313.792466 569.298228,313.792466 Z M809.138792,360.913014 L809.138792,212.819863 C809.138792,201.440411 811.260566,191.503425 815.504115,183.008904 C819.747664,174.514384 825.712652,167.903082 833.399079,163.175 C841.085507,158.446918 850.133073,156.082877 860.541777,156.082877 C876.2349,156.082877 888.044776,160.690753 895.971405,169.906507 C903.898033,179.12226 907.861347,192.144521 907.861347,208.973288 L907.861347,360.913014 L978,360.913014 L978,194.54863 C978,164.256849 970.273539,140.57637 954.820617,123.507192 C939.367694,106.438014 917.469382,97.9034247 889.12568,97.9034247 C869.749477,97.9034247 853.495885,102.150685 840.364904,110.645205 C827.233924,119.139726 817.305621,130.759589 810.579997,145.504795 L809.138792,145.504795 L809.138792,103.192466 L739.000139,103.192466 L739.000139,360.913014 L809.138792,360.913014 Z" id="Han" fill="#404040"></path>
        <path d="M1143.54597,366.653905 C1222.33466,366.653905 1284.30869,326.742726 1284.30869,257.739663 C1284.30869,206.047473 1254.0423,169.983155 1189.90639,149.06585 L1160.12042,138.967841 C1120.48586,125.744257 1100.54848,108.914242 1100.54848,80.0627871 C1100.54848,50.4900459 1122.16733,29.3323124 1162.76272,29.3323124 C1206.72105,29.3323124 1238.42869,60.5880551 1249.71853,113.722818 L1265.33215,113.722818 L1262.93005,30.0535988 C1243.95351,17.0704441 1207.44168,6.97243492 1161.80188,6.97243492 C1077.00796,6.97243492 1022,47.1240429 1022,111.558959 C1022,162.289433 1055.1489,197.151608 1115.92188,216.866769 L1146.18827,226.724349 C1187.7445,240.669219 1206.00042,259.903522 1206.00042,289.476263 C1206.00042,321.93415 1180.77843,344.294028 1141.62429,344.294028 C1093.58241,344.294028 1051.54576,310.874426 1038.57445,250.045942 L1023.20105,250.045942 L1026.32377,341.168453 C1050.34471,355.594181 1094.06283,366.653905 1143.54597,366.653905 Z M1416.18366,365.451761 C1446.45005,365.451761 1474.55455,352.709035 1485.8444,338.764165 L1485.8444,322.655436 C1479.11853,327.94487 1468.30911,331.79173 1457.01927,331.79173 C1435.64063,331.79173 1421.22806,319.289433 1421.22806,284.908116 L1421.22806,142.093415 L1482.72168,145.218989 L1482.72168,119.012251 L1421.22806,122.137825 L1421.22806,61.5497703 L1408.73717,61.5497703 L1314.33487,131.274119 L1314.33487,145.218989 L1342.67958,145.218989 L1342.67958,288.514548 C1342.67958,344.053599 1375.58827,365.451761 1416.18366,365.451761 Z M1600.18408,471 L1637.65675,366.653905 L1667.20251,295.727412 L1714.28356,180.081164 C1728.69613,144.97856 1734.94157,139.448698 1755.59958,135.361409 L1755.59958,119.012251 L1668.64377,119.012251 L1668.64377,135.361409 C1696.74827,138.727412 1700.1112,145.940276 1688.82136,177.676876 L1650.62806,284.18683 L1612.67497,176.95559 C1601.86555,145.940276 1604.98827,138.727412 1633.57319,135.361409 L1633.57319,119.012251 L1489.68775,119.012251 L1489.68775,135.361409 C1509.86534,139.448698 1515.39016,145.218989 1527.88105,175.272588 L1609.07183,370.741194 C1590.57571,402.237366 1559.8289,444.793262 1537.72963,469.797856 L1537.72963,471 L1600.18408,471 Z M1905.97068,360.402757 L1905.97068,344.294028 C1880.9889,340.447167 1876.66513,335.638591 1876.66513,318.808576 L1876.66513,0 L1768.33068,13.2235835 L1768.33068,28.3705972 L1782.02262,32.4578867 C1795.47435,36.7856049 1797.63623,40.3920368 1797.63623,55.5390505 L1797.63623,318.808576 C1797.63623,335.638591 1793.31246,340.447167 1768.33068,344.294028 L1768.33068,360.402757 L1905.97068,360.402757 Z M2063.78827,365.451761 C2108.46723,365.451761 2145.45948,349.82389 2163.71539,324.578867 L2163.71539,308.470138 C2150.98429,320.732006 2129.84586,328.906585 2107.02597,328.906585 C2056.8222,328.906585 2021.51141,295.006126 2014.78555,235.620214 L2167.55874,235.620214 C2168.27937,231.292496 2169,224.320061 2169,217.347626 C2169,155.316998 2128.40461,114.203675 2060.42534,114.203675 C1985.23979,114.203675 1934.31539,165.895865 1934.31539,240.909648 C1934.31539,318.327718 1991.48524,365.451761 2063.78827,365.451761 Z M2013.82471,216.866769 L2013.82471,214.943338 L2013.82471,214.943338 C2013.82471,163.732006 2031.11979,135.601838 2060.42534,135.601838 C2086.60817,135.601838 2099.33927,161.568147 2099.33927,203.643185 C2099.33927,208.932619 2099.09906,212.779479 2098.85885,216.385911 L2013.82471,216.866769 Z" id="Style" fill="#BCBCBC"></path>
    </g>
</svg>